<svg width="120" height="37" viewBox="0 0 120 37" fill="none" xmlns="http://www.w3.org/2000/svg">
<path d="M119.078 31.7333C119.078 33.946 117.105 35.8135 114.578 35.8135H5.21095C2.68376 35.8137 0.710602 33.9461 0.710602 31.7333V5.00993C0.710602 2.79761 2.6837 0.930145 5.21095 0.930145H114.578C117.105 0.930145 119.077 2.79748 119.077 5.00993L119.078 31.7333Z" fill="black" stroke="white"/>
<path d="M48.1808 23.7903H46.3745L45.385 20.8366H41.9457L41.0031 23.7903H39.2445L42.652 13.7348H44.7566L48.1808 23.7903ZM45.0867 19.5975L44.1919 16.9718C44.0973 16.7035 43.9199 16.0718 43.6582 15.0775H43.6264C43.5222 15.5051 43.3543 16.1368 43.1237 16.9718L42.2448 19.5975H45.0867Z" fill="white"/>
<path d="M56.9438 20.0758C56.9438 21.3089 56.593 22.2836 55.8915 22.9992C55.2631 23.6361 54.4828 23.9542 53.5514 23.9542C52.546 23.9542 51.8238 23.6112 51.3839 22.9251H51.3521V26.7447H49.6563V18.9265C49.6563 18.1512 49.6348 17.3556 49.5935 16.5396H51.0849L51.1795 17.6888H51.2113C51.7769 16.8229 52.6351 16.3907 53.7868 16.3907C54.6872 16.3907 55.4389 16.7285 56.0402 17.4047C56.6431 18.0817 56.9438 18.9718 56.9438 20.0758ZM55.2162 20.1347C55.2162 19.429 55.0491 18.8472 54.7135 18.3893C54.3468 17.9117 53.8544 17.673 53.2372 17.673C52.8188 17.673 52.4386 17.8059 52.099 18.0681C51.7586 18.3326 51.5358 18.6779 51.4316 19.1056C51.3792 19.305 51.3529 19.4683 51.3529 19.5967V20.8057C51.3529 21.3331 51.5231 21.7781 51.8636 22.1416C52.204 22.505 52.6462 22.6863 53.1903 22.6863C53.829 22.6863 54.3261 22.4521 54.6817 21.9852C55.038 21.5174 55.2162 20.9009 55.2162 20.1347Z" fill="white"/>
<path d="M65.7226 20.0758C65.7226 21.3089 65.3719 22.2836 64.6695 22.9992C64.0419 23.6361 63.2617 23.9542 62.3302 23.9542C61.3248 23.9542 60.6026 23.6112 60.1636 22.9251H60.1317V26.7447H58.436V18.9265C58.436 18.1512 58.4145 17.3556 58.3731 16.5396H59.8645L59.9591 17.6888H59.991C60.5557 16.8229 61.4139 16.3907 62.5665 16.3907C63.4661 16.3907 64.2177 16.7285 64.8206 17.4047C65.4212 18.0817 65.7226 18.9718 65.7226 20.0758ZM63.995 20.1347C63.995 19.429 63.8272 18.8472 63.4915 18.3893C63.1248 17.9117 62.6341 17.673 62.0161 17.673C61.5969 17.673 61.2175 17.8059 60.877 18.0681C60.5366 18.3326 60.3147 18.6779 60.2105 19.1056C60.1588 19.305 60.1317 19.4683 60.1317 19.5967V20.8057C60.1317 21.3331 60.302 21.7781 60.6408 22.1416C60.9812 22.5042 61.4235 22.6863 61.9691 22.6863C62.6078 22.6863 63.105 22.4521 63.4605 21.9852C63.8168 21.5174 63.995 20.9009 63.995 20.1347Z" fill="white"/>
<path d="M75.5379 20.9704C75.5379 21.8257 75.2253 22.5216 74.5977 23.0589C73.9081 23.646 72.9481 23.9391 71.7144 23.9391C70.5754 23.9391 69.6622 23.7306 68.971 23.3127L69.364 21.97C70.1085 22.3977 70.9253 22.6123 71.8154 22.6123C72.4541 22.6123 72.9512 22.4748 73.3084 22.2013C73.6639 21.9277 73.8413 21.5605 73.8413 21.1026C73.8413 20.6946 73.6949 20.3508 73.4014 20.072C73.1095 19.7932 72.6219 19.534 71.9411 19.2945C70.0878 18.6379 69.1619 17.676 69.1619 16.4111C69.1619 15.5845 69.4865 14.9067 70.1363 14.3793C70.7838 13.8511 71.6476 13.5874 72.7277 13.5874C73.691 13.5874 74.4911 13.7469 75.1298 14.065L74.7059 15.3782C74.1093 15.0699 73.4348 14.9158 72.68 14.9158C72.0835 14.9158 71.6174 15.0556 71.2833 15.3336C71.0009 15.5822 70.8593 15.8852 70.8593 16.2441C70.8593 16.6416 71.0208 16.9702 71.3453 17.2287C71.6277 17.4674 72.1407 17.7258 72.8852 18.0047C73.796 18.353 74.4649 18.7603 74.8952 19.2272C75.3239 19.6927 75.5379 20.2752 75.5379 20.9704Z" fill="white"/>
<path d="M81.1447 17.7485H79.2755V21.2688C79.2755 22.1642 79.6048 22.6115 80.2649 22.6115C80.568 22.6115 80.8193 22.5866 81.0182 22.5367L81.0651 23.7601C80.7311 23.8787 80.2912 23.9384 79.7463 23.9384C79.0766 23.9384 78.5532 23.7442 78.1754 23.3566C77.7992 22.9682 77.6099 22.3169 77.6099 21.4018V17.747H76.4963V16.538H77.6099V15.2105L79.2755 14.7329V16.538H81.1447V17.7485Z" fill="white"/>
<path d="M89.5783 20.1052C89.5783 21.2197 89.2426 22.1348 88.5729 22.8503C87.8706 23.587 86.9384 23.9542 85.7763 23.9542C84.6564 23.9542 83.7647 23.6014 83.0998 22.8956C82.4348 22.1899 82.1023 21.2991 82.1023 20.2254C82.1023 19.1018 82.4443 18.1815 83.1308 17.4659C83.8156 16.7496 84.7399 16.3915 85.902 16.3915C87.0219 16.3915 87.9231 16.7443 88.6031 17.4508C89.2538 18.1361 89.5783 19.0209 89.5783 20.1052ZM87.8189 20.1574C87.8189 19.4887 87.6685 18.9152 87.3639 18.4369C87.0084 17.8581 86.5001 17.5694 85.8415 17.5694C85.1598 17.5694 84.642 17.8588 84.2865 18.4369C83.9819 18.9159 83.8315 19.4985 83.8315 20.1876C83.8315 20.8563 83.9819 21.4298 84.2865 21.9073C84.6532 22.4861 85.1654 22.7747 85.8264 22.7747C86.4739 22.7747 86.9821 22.4801 87.3488 21.8922C87.6614 21.4049 87.8189 20.8253 87.8189 20.1574Z" fill="white"/>
<path d="M95.0904 17.9563C94.9226 17.9268 94.7436 17.9117 94.5559 17.9117C93.9594 17.9117 93.498 18.1256 93.1735 18.554C92.8912 18.9318 92.7496 19.4093 92.7496 19.9858V23.7903H91.0546L91.0705 18.823C91.0705 17.9873 91.049 17.2264 91.0068 16.5403H92.4839L92.5459 17.9276H92.5929C92.7718 17.4508 93.0542 17.067 93.4408 16.7791C93.8186 16.5199 94.2266 16.3907 94.6665 16.3907C94.8232 16.3907 94.9648 16.4013 95.0904 16.4202V17.9563Z" fill="white"/>
<path d="M102.675 19.8219C102.675 20.1105 102.655 20.3538 102.613 20.5525H97.5252C97.5451 21.2688 97.7908 21.8167 98.2633 22.1945C98.692 22.5322 99.2464 22.7015 99.9273 22.7015C100.681 22.7015 101.368 22.5874 101.986 22.3584L102.251 23.4767C101.529 23.7759 100.677 23.9248 99.6926 23.9248C98.5091 23.9248 97.5801 23.5938 96.904 22.9327C96.2295 22.2715 95.8914 21.3837 95.8914 20.2699C95.8914 19.1766 96.2056 18.2661 96.8348 17.54C97.4934 16.7647 98.3834 16.3771 99.5033 16.3771C100.603 16.3771 101.436 16.7647 102.002 17.54C102.449 18.1558 102.675 18.9174 102.675 19.8219ZM101.058 19.404C101.069 18.9265 100.958 18.5139 100.728 18.1656C100.435 17.7175 99.9838 17.4939 99.3769 17.4939C98.8225 17.4939 98.3715 17.7122 98.0271 18.1505C97.7447 18.4988 97.5769 18.9167 97.5252 19.4033L101.058 19.404Z" fill="white"/>
<path d="M24.6345 18.3443C24.6141 16.0776 26.4956 14.9749 26.5817 14.9235C25.5161 13.3742 23.8644 13.1625 23.284 13.1456C21.8969 13.0001 20.5513 13.9734 19.8447 13.9734C19.1239 13.9734 18.0357 13.1597 16.863 13.1836C15.3538 13.2068 13.9419 14.0782 13.1676 15.4313C11.5695 18.1902 12.7614 22.2446 14.2924 24.4747C15.0583 25.5669 15.9532 26.7864 17.1246 26.7435C18.2706 26.6964 18.6987 26.0149 20.0816 26.0149C21.4519 26.0149 21.8538 26.7435 23.0485 26.7161C24.2784 26.6964 25.0527 25.619 25.7918 24.5169C26.6769 23.2651 27.0323 22.0322 27.0464 21.969C27.0175 21.9591 24.6578 21.061 24.6345 18.3443Z" fill="white"/>
<path d="M22.3778 11.6786C22.9942 10.9099 23.4159 9.86416 23.2988 8.80292C22.4067 8.8423 21.2911 9.41828 20.6486 10.1701C20.0802 10.8326 19.5724 11.9184 19.7036 12.9396C20.7057 13.0141 21.7347 12.4353 22.3778 11.6786Z" fill="white"/>
</svg>
