<svg width="120" height="37" viewBox="0 0 120 37" fill="none" xmlns="http://www.w3.org/2000/svg">
<path d="M119.5 31.7333C119.5 33.9017 117.338 35.8135 114.464 35.8135H6.17067C3.29608 35.8137 1.13318 33.9018 1.13318 31.7333V5.0099C1.13318 2.84179 3.29603 0.930115 6.17067 0.930115H114.464C117.338 0.930115 119.5 2.84168 119.5 5.0099L119.5 31.7333Z" fill="black" stroke="white"/>
<path d="M56.6394 23.8641L55.6954 21.0751H51.7621L50.8181 23.8641H49.1518L52.8777 13.5445H54.6084L58.3343 23.8641H56.6394ZM53.7073 15.2609L52.1697 19.7878H55.2878L53.7502 15.2609H53.7073Z" fill="white"/>
<path d="M59.2855 23.8641V16.3408H60.7587V17.5994H60.7944C61.0042 17.1608 61.3093 16.8199 61.7098 16.5768C62.1103 16.3336 62.5942 16.212 63.1616 16.212C63.9864 16.212 64.6276 16.46 65.0853 16.9558C65.543 17.4469 65.7719 18.1263 65.7719 18.994V23.8641H64.22V19.2943C64.22 18.7222 64.0841 18.2884 63.8124 17.9928C63.5454 17.6924 63.1473 17.5422 62.6181 17.5422C62.0746 17.5422 61.6407 17.7186 61.3165 18.0714C60.9923 18.4242 60.8302 18.8939 60.8302 19.4803V23.8641H59.2855Z" fill="white"/>
<path d="M70.0914 23.9929C69.1378 23.9929 68.3726 23.6401 67.7957 22.9345C67.2189 22.2288 66.9304 21.2848 66.9304 20.1025C66.9304 18.9201 67.2165 17.9785 67.7886 17.2776C68.3655 16.572 69.1283 16.2192 70.0771 16.2192C70.6063 16.2192 71.0783 16.3432 71.4931 16.5911C71.9079 16.8342 72.2225 17.168 72.4371 17.5923H72.4657V13.5445H74.0176V23.8641H72.5157V22.584H72.4871C72.2631 23.0227 71.9412 23.3683 71.5217 23.621C71.1069 23.8689 70.6301 23.9929 70.0914 23.9929ZM70.499 17.5208C69.8888 17.5208 69.4048 17.7544 69.0473 18.2216C68.6897 18.6841 68.5109 19.311 68.5109 20.1025C68.5109 20.8987 68.6897 21.528 69.0473 21.9905C69.4048 22.4529 69.8888 22.6842 70.499 22.6842C71.095 22.6842 71.5741 22.4505 71.9365 21.9833C72.2988 21.5113 72.48 20.8844 72.48 20.1025C72.48 19.3253 72.2988 18.7008 71.9365 18.2288C71.5741 17.7568 71.095 17.5208 70.499 17.5208Z" fill="white"/>
<path d="M75.6052 23.8641V16.3408H77.0784V17.6209H77.1142C77.2381 17.1823 77.4598 16.839 77.7792 16.5911C78.0987 16.3432 78.4801 16.2192 78.9235 16.2192C79.0713 16.2192 79.2477 16.2383 79.4527 16.2764V17.7139C79.3144 17.6566 79.0832 17.628 78.759 17.628C78.2632 17.628 77.8698 17.783 77.579 18.0929C77.2929 18.4028 77.1499 18.8247 77.1499 19.3587V23.8641H75.6052Z" fill="white"/>
<path d="M85.9105 22.9631C85.2621 23.6591 84.3968 24.0072 83.3145 24.0072C82.2322 24.0072 81.3669 23.6591 80.7185 22.9631C80.0701 22.2622 79.7459 21.3087 79.7459 20.1025C79.7459 18.901 80.0701 17.9522 80.7185 17.2562C81.3669 16.5553 82.2322 16.2049 83.3145 16.2049C84.3968 16.2049 85.2621 16.5553 85.9105 17.2562C86.5589 17.9522 86.8831 18.901 86.8831 20.1025C86.8831 21.3087 86.5589 22.2622 85.9105 22.9631ZM83.3145 22.7342C83.9295 22.7342 84.4158 22.503 84.7734 22.0405C85.131 21.5781 85.3098 20.932 85.3098 20.1025C85.3098 19.2777 85.1286 18.634 84.7663 18.1716C84.4087 17.7091 83.9248 17.4779 83.3145 17.4779C82.7042 17.4779 82.2179 17.7091 81.8556 18.1716C81.498 18.634 81.3192 19.2777 81.3192 20.1025C81.3192 20.932 81.498 21.5781 81.8556 22.0405C82.2179 22.503 82.7042 22.7342 83.3145 22.7342Z" fill="white"/>
<path d="M88.1275 23.8641V16.3408H89.6722V23.8641H88.1275ZM89.5363 14.982C89.3599 15.1536 89.1477 15.2394 88.8998 15.2394C88.6519 15.2394 88.4397 15.1536 88.2633 14.982C88.0917 14.8104 88.0059 14.603 88.0059 14.3598C88.0059 14.1119 88.0917 13.9021 88.2633 13.7305C88.4397 13.5588 88.6519 13.473 88.8998 13.473C89.1525 13.473 89.3647 13.5588 89.5363 13.7305C89.7127 13.9021 89.8009 14.1119 89.8009 14.3598C89.8009 14.603 89.7127 14.8104 89.5363 14.982Z" fill="white"/>
<path d="M94.0775 23.9929C93.124 23.9929 92.3588 23.6401 91.7819 22.9345C91.205 22.2288 90.9165 21.2848 90.9165 20.1025C90.9165 18.9201 91.2026 17.9785 91.7747 17.2776C92.3516 16.572 93.1144 16.2192 94.0632 16.2192C94.5924 16.2192 95.0644 16.3432 95.4792 16.5911C95.894 16.8342 96.2087 17.168 96.4232 17.5923H96.4518V13.5445H98.0037V23.8641H96.5019V22.584H96.4733C96.2492 23.0227 95.9274 23.3683 95.5078 23.621C95.093 23.8689 94.6163 23.9929 94.0775 23.9929ZM94.4851 17.5208C93.8749 17.5208 93.391 17.7544 93.0334 18.2216C92.6758 18.6841 92.497 19.311 92.497 20.1025C92.497 20.8987 92.6758 21.528 93.0334 21.9905C93.391 22.4529 93.8749 22.6842 94.4851 22.6842C95.0811 22.6842 95.5602 22.4505 95.9226 21.9833C96.2849 21.5113 96.4661 20.8844 96.4661 20.1025C96.4661 19.3253 96.2849 18.7008 95.9226 18.2288C95.5602 17.7568 95.0811 17.5208 94.4851 17.5208Z" fill="white"/>
<g clip-path="url(#clip0)">
<path d="M25.39 20.3089C25.39 21.0134 24.8991 21.5901 24.2995 21.5901C23.6998 21.5901 23.2084 21.0139 23.2084 20.3089V16.1159C23.2084 15.4114 23.6993 14.8347 24.2995 14.8347C24.8997 14.8347 25.39 15.4114 25.39 16.1159V20.3089ZM38.1076 20.3089C38.1076 21.0134 37.6167 21.5901 37.0165 21.5901C36.4163 21.5901 35.9254 21.0139 35.9254 20.3089V16.1159C35.9254 15.4114 36.4163 14.8347 37.0165 14.8347C37.6167 14.8347 38.1076 15.4114 38.1076 16.1159V20.3089ZM33.0429 10.782L33.7428 9.52601C33.8 9.42349 33.7828 9.30379 33.7055 9.26083C33.6282 9.21788 33.5171 9.26599 33.4604 9.36851L32.7445 10.6537C32.0719 10.3922 31.3562 10.2593 30.6345 10.262C29.8728 10.262 29.1523 10.4052 28.5097 10.66L27.7903 9.36908C27.733 9.26656 27.6225 9.21788 27.5452 9.26141C27.4679 9.30493 27.4507 9.42406 27.508 9.52658L28.2113 10.7889C26.7479 11.4762 25.7623 12.7665 25.7623 14.2453C25.7623 14.3954 25.7731 14.5437 25.7926 14.6898H35.477C35.497 14.5437 35.5073 14.396 35.5073 14.2453C35.5073 12.762 34.5154 11.4682 33.044 10.7826L33.0429 10.782ZM28.4226 12.9744C28.3667 12.9744 28.3112 12.9634 28.2595 12.942C28.2079 12.9206 28.1609 12.8892 28.1213 12.8496C28.0817 12.8101 28.0504 12.7631 28.0289 12.7114C28.0075 12.6597 27.9965 12.6043 27.9965 12.5483C27.9965 12.4924 28.0075 12.437 28.0289 12.3853C28.0504 12.3336 28.0817 12.2866 28.1213 12.247C28.1609 12.2075 28.2079 12.1761 28.2595 12.1547C28.3112 12.1332 28.3667 12.1222 28.4226 12.1222C28.5356 12.1222 28.644 12.1671 28.7239 12.247C28.8038 12.3269 28.8487 12.4353 28.8487 12.5483C28.8487 12.6613 28.8038 12.7697 28.7239 12.8496C28.644 12.9296 28.5356 12.9744 28.4226 12.9744ZM32.8693 12.9744C32.8134 12.9744 32.758 12.9634 32.7063 12.942C32.6546 12.9206 32.6076 12.8892 32.568 12.8496C32.5285 12.8101 32.4971 12.7631 32.4757 12.7114C32.4542 12.6597 32.4432 12.6043 32.4432 12.5483C32.4432 12.4924 32.4542 12.437 32.4757 12.3853C32.4971 12.3336 32.5285 12.2866 32.568 12.247C32.6076 12.2075 32.6546 12.1761 32.7063 12.1547C32.758 12.1332 32.8134 12.1222 32.8693 12.1222C32.9823 12.1222 33.0907 12.1671 33.1706 12.247C33.2506 12.3269 33.2954 12.4353 33.2954 12.5483C33.2954 12.6613 33.2506 12.7697 33.1706 12.8496C33.0907 12.9296 32.9823 12.9744 32.8693 12.9744ZM25.7611 15.113V22.2556H25.7651C25.815 22.8587 26.3699 23.3381 27.0423 23.3381H34.225C34.8968 23.3381 35.4518 22.8587 35.5022 22.2556H35.5062V15.113H25.7617H25.7611ZM29.9364 23.3026V25.5122C29.9364 26.2167 29.4455 26.7934 28.8453 26.7934C28.2451 26.7934 27.7548 26.2167 27.7548 25.5122V23.3043L29.9364 23.3026ZM33.5721 23.3014V25.5122C33.5721 26.2167 33.0812 26.7934 32.481 26.7934C31.8808 26.7934 31.39 26.2167 31.39 25.5122V23.3014H33.5721Z" fill="white"/>
</g>
<defs>
<clipPath id="clip0">
<rect width="17.5755" height="17.5755" fill="white" transform="translate(21.8703 9.21786)"/>
</clipPath>
</defs>
</svg>
