<svg width="495" height="282" viewBox="0 0 495 282" fill="none" xmlns="http://www.w3.org/2000/svg">
<path d="M0.0485774 250.447L7.99704 204.99L105.764 119.773C123.816 104.238 133.685 91.5751 135.372 81.7842C136.571 75.9573 135.663 71.1689 132.65 67.4191C129.638 63.6692 125.098 61.7778 119.031 61.7446C105.265 61.6694 92.8499 70.4684 81.7865 88.1415L31.2075 56.7147C42.5093 38.1095 56.5856 24.1862 73.4363 14.9448C90.2883 5.47006 108.281 0.784957 127.414 0.889488C150.047 1.01314 168.554 8.93104 182.935 24.6432C197.551 40.1233 202.693 59.8683 198.362 83.8783C195.717 98.0974 190.632 110.553 183.107 121.246C175.815 131.939 164.902 143.546 150.366 156.067L109.578 190.495L182.377 190.893L171.546 251.384L0.0485774 250.447Z" fill="url(#paint0_linear)"/>
<path d="M385.067 67.3981L299.319 66.9296L292.525 93.1429L307.575 93.2252C331.141 93.3539 349.883 101.04 363.8 116.283C377.95 131.527 382.619 152.436 377.807 179.01C373.234 204.652 361.577 224.189 342.837 237.62C324.331 250.819 302.595 257.35 277.629 257.214C233.296 256.972 205.047 238.384 192.882 201.45L250.796 171.666C255.84 188.027 267.112 196.256 284.611 196.351C293.244 196.398 300.255 194.453 305.643 190.516C311.266 186.347 314.68 180.882 315.883 174.122C317.088 167.128 315.719 161.521 311.775 157.299C308.065 153.079 302.126 150.946 293.96 150.902L215.211 150.471L251.346 6.81665L395.894 7.60637L385.067 67.3981Z" fill="url(#paint1_linear)"/>
<path fill-rule="evenodd" clip-rule="evenodd" d="M73.4363 14.9448C56.5856 24.1862 42.5093 38.1095 31.2075 56.7147L81.7857 88.141C92.8491 70.4679 105.265 61.6694 119.031 61.7446C125.098 61.7778 129.638 63.6693 132.65 67.4191C135.663 71.169 136.571 75.9573 135.372 81.7842C133.685 91.5751 123.816 104.238 105.764 119.773L7.99704 204.99L0.0485774 250.447L171.546 251.384L182.377 190.893L109.578 190.495L150.366 156.067C164.902 143.546 175.815 131.939 183.107 121.246C190.632 110.553 195.717 98.0974 198.362 83.8783C202.693 59.8683 197.551 40.1233 182.935 24.6432C168.554 8.93104 150.047 1.01314 127.414 0.889488C108.281 0.784957 90.2883 5.47006 73.4363 14.9448ZM148.735 154.173C148.738 154.17 148.741 154.168 148.744 154.165C163.181 141.728 173.918 130.284 181.042 119.837L181.052 119.822L181.063 119.807C188.359 109.44 193.316 97.3294 195.902 83.4289C200.114 60.0722 195.102 41.1711 181.117 26.3595L181.104 26.3454L181.091 26.3311C167.212 11.1679 149.386 3.50957 127.4 3.38945C108.706 3.28732 91.1395 7.85952 74.6615 17.124L74.65 17.1305L74.6385 17.1368C58.8573 25.7916 45.5203 38.6852 34.6471 55.9086L81.0134 84.7179C91.9759 68.0634 104.618 59.1658 119.045 59.2446C125.65 59.2807 130.995 61.3677 134.599 65.8532C138.18 70.3102 139.127 75.8972 137.829 82.2489C136.877 87.7153 133.713 93.6997 128.677 100.161C123.606 106.668 116.495 113.836 107.401 121.663C107.399 121.664 107.397 121.666 107.395 121.668L10.3072 206.293L3.02081 247.964L169.456 248.873L179.392 193.376L102.784 192.958L148.735 154.173ZM299.319 66.9296L385.067 67.3981L395.894 7.60637L251.346 6.81665L215.211 150.471L293.96 150.902C302.126 150.946 308.065 153.079 311.775 157.299C315.719 161.521 317.088 167.128 315.883 174.122C314.68 180.882 311.266 186.347 305.643 190.516C300.255 194.453 293.244 196.398 284.611 196.351C267.988 196.26 256.984 188.831 251.6 174.063C251.317 173.285 251.048 172.486 250.796 171.666L192.882 201.45C205.047 238.384 233.296 256.972 277.629 257.214C302.595 257.35 324.331 250.819 342.837 237.62C361.577 224.189 373.234 204.652 377.807 179.01C382.619 152.436 377.95 131.527 363.8 116.283C349.883 101.04 331.141 93.3539 307.575 93.2252L292.525 93.1429L299.319 66.9296ZM195.944 202.687C201.934 219.686 211.495 232.402 224.567 241.003C238.179 249.96 255.812 254.595 277.642 254.714C302.138 254.848 323.349 248.449 341.385 235.585C359.523 222.584 370.871 203.66 375.346 178.571L375.347 178.565C380.065 152.512 375.429 132.485 361.968 117.983L361.961 117.976L361.954 117.968C348.576 103.316 330.539 95.8506 307.561 95.7251L289.299 95.6253L297.387 64.419L382.981 64.8867L392.904 10.0901L253.293 9.32732L218.413 147.989L293.973 148.402C302.508 148.448 309.264 150.677 313.628 155.62C318.208 160.541 319.648 166.992 318.347 174.546L318.345 174.56C317.027 181.962 313.257 187.983 307.132 192.524L307.125 192.529L307.118 192.535C301.186 196.869 293.608 198.9 284.598 198.851C275.457 198.801 267.716 196.622 261.559 192.127C256.087 188.134 252.048 182.444 249.361 175.215L195.944 202.687Z" fill="url(#paint2_linear)"/>
<g filter="url(#filter0_d)">
<path d="M395.739 227.977C394.998 231.653 393.083 234.403 389.993 236.226C393.141 238.483 394.384 241.67 393.721 245.786C393.182 249.303 391.426 252.134 388.455 254.278C385.523 256.422 381.697 257.481 376.977 257.455L359.217 257.358L366.827 215.399L382.907 215.487C387.466 215.512 390.92 216.71 393.267 219.083C395.614 221.416 396.438 224.381 395.739 227.977ZM380.93 225.796L376.97 225.774L375.919 231.409L380.54 231.374C382.301 231.144 383.326 230.229 383.615 228.631C383.78 227.632 383.584 226.911 383.027 226.467C382.509 226.025 381.81 225.801 380.93 225.796ZM382.03 244.162C382.359 242.444 381.685 241.46 380.006 241.211L374.186 241.119L373.074 247.113L378.114 247.141C379.114 247.146 379.955 246.891 380.638 246.375C381.361 245.819 381.825 245.081 382.03 244.162Z" fill="url(#paint3_linear)"/>
<path d="M436.699 215.781L418.749 239.503L415.469 257.665L403.47 257.6L406.749 239.497L397.459 215.566L410.059 215.635L414.069 228.377L422.659 215.704L436.699 215.781Z" fill="url(#paint4_linear)"/>
<path d="M432.107 257.756L439.716 215.797L449.316 215.849L458.866 236.062L462.516 215.922L474.516 215.987L466.906 257.946L457.307 257.894L447.757 237.681L444.107 257.822L432.107 257.756Z" fill="url(#paint5_linear)"/>
</g>
<g filter="url(#filter1_d)">
<path fill-rule="evenodd" clip-rule="evenodd" d="M391.145 235.463C393.564 233.668 395.095 231.172 395.739 227.977C396.438 224.381 395.614 221.416 393.267 219.083C390.92 216.71 387.466 215.512 382.907 215.487L366.827 215.399L359.217 257.358L376.977 257.455C381.697 257.481 385.523 256.422 388.455 254.278C391.426 252.134 393.182 249.303 393.721 245.786C394.303 242.173 393.416 239.276 391.063 237.095C390.735 236.792 390.378 236.502 389.993 236.226C390.397 235.987 390.781 235.733 391.145 235.463ZM360.773 256.066L376.984 256.155C381.509 256.18 385.039 255.165 387.687 253.228L387.694 253.223C390.393 251.277 391.952 248.75 392.436 245.589L392.438 245.58C392.74 243.7 392.595 242.116 392.075 240.781C391.557 239.452 390.633 238.284 389.236 237.282L387.615 236.12L389.333 235.106C392.088 233.48 393.792 231.055 394.463 227.725C395.089 224.502 394.353 221.995 392.351 220.005L392.343 219.998C390.316 217.949 387.244 216.81 382.899 216.787L367.911 216.705L360.773 256.066ZM375.891 224.468L380.937 224.496C382.025 224.502 383.045 224.781 383.854 225.465C384.911 226.318 385.102 227.606 384.897 228.843L384.896 228.852L384.894 228.862C384.708 229.892 384.262 230.801 383.495 231.485C382.737 232.161 381.773 232.524 380.708 232.663L380.629 232.673L374.352 232.721L375.891 224.468ZM383.027 226.467C383.584 226.911 383.78 227.632 383.615 228.631C383.326 230.229 382.301 231.144 380.54 231.374L375.919 231.409L376.97 225.774L380.93 225.796C381.81 225.801 382.509 226.025 383.027 226.467ZM383.303 244.426L383.299 244.445C383.03 245.651 382.403 246.657 381.43 247.405L381.422 247.412C380.474 248.128 379.342 248.448 378.106 248.441L371.512 248.405L373.109 239.802L380.112 239.913L380.197 239.925C381.239 240.08 382.227 240.503 382.843 241.401C383.452 242.289 383.506 243.366 383.307 244.407L383.303 244.426ZM374.186 241.119L380.006 241.211C381.685 241.46 382.359 242.444 382.03 244.162C381.825 245.081 381.361 245.819 380.638 246.375C379.955 246.891 379.114 247.146 378.114 247.141L373.074 247.113L374.186 241.119ZM418.749 239.503L436.699 215.781L422.659 215.704L414.069 228.377L410.059 215.635L397.459 215.566L406.749 239.497L403.47 257.6L415.469 257.665L418.749 239.503ZM414.384 256.359L417.525 238.966L434.095 217.066L423.346 217.008L413.637 231.333L409.104 216.93L399.362 216.877L408.093 239.368L405.025 256.308L414.384 256.359ZM458.866 236.062L449.316 215.849L439.716 215.797L432.107 257.756L444.107 257.822L447.757 237.681L457.307 257.894L466.906 257.946L474.516 215.987L462.516 215.922L458.866 236.062ZM463.6 217.228L459.422 240.282L448.49 217.145L440.801 217.103L433.662 256.465L443.022 256.516L447.201 233.461L458.132 256.598L465.822 256.64L472.96 217.279L463.6 217.228Z" fill="url(#paint6_linear)"/>
</g>
<defs>
<filter id="filter0_d" x="339.217" y="199.358" width="155.298" height="82.628" filterUnits="userSpaceOnUse" color-interpolation-filters="sRGB">
<feFlood flood-opacity="0" result="BackgroundImageFix"/>
<feColorMatrix in="SourceAlpha" type="matrix" values="0 0 0 0 0 0 0 0 0 0 0 0 0 0 0 0 0 0 127 0"/>
<feOffset dy="4"/>
<feGaussianBlur stdDeviation="10"/>
<feColorMatrix type="matrix" values="0 0 0 0 0 0 0 0 0 0 0 0 0 0 0 0 0 0 0.7 0"/>
<feBlend mode="normal" in2="BackgroundImageFix" result="effect1_dropShadow"/>
<feBlend mode="normal" in="SourceGraphic" in2="effect1_dropShadow" result="shape"/>
</filter>
<filter id="filter1_d" x="339.217" y="199.358" width="155.298" height="82.628" filterUnits="userSpaceOnUse" color-interpolation-filters="sRGB">
<feFlood flood-opacity="0" result="BackgroundImageFix"/>
<feColorMatrix in="SourceAlpha" type="matrix" values="0 0 0 0 0 0 0 0 0 0 0 0 0 0 0 0 0 0 127 0"/>
<feOffset dy="4"/>
<feGaussianBlur stdDeviation="10"/>
<feColorMatrix type="matrix" values="0 0 0 0 0 0 0 0 0 0 0 0 0 0 0 0 0 0 0.7 0"/>
<feBlend mode="normal" in2="BackgroundImageFix" result="effect1_dropShadow"/>
<feBlend mode="normal" in="SourceGraphic" in2="effect1_dropShadow" result="shape"/>
</filter>
<linearGradient id="paint0_linear" x1="197.738" y1="-32.1346" x2="228.307" y2="236.097" gradientUnits="userSpaceOnUse">
<stop stop-color="#FDFFFC"/>
<stop offset="0.140625" stop-color="#C2FFC8"/>
<stop offset="0.317708" stop-color="#98FFB5"/>
<stop offset="0.619792" stop-color="#00BB29"/>
<stop offset="0.765625" stop-color="#01AF3C"/>
<stop offset="1" stop-color="#009C35"/>
</linearGradient>
<linearGradient id="paint1_linear" x1="197.738" y1="-32.1346" x2="228.307" y2="236.097" gradientUnits="userSpaceOnUse">
<stop stop-color="#FDFFFC"/>
<stop offset="0.140625" stop-color="#C2FFC8"/>
<stop offset="0.317708" stop-color="#98FFB5"/>
<stop offset="0.619792" stop-color="#00BB29"/>
<stop offset="0.765625" stop-color="#01AF3C"/>
<stop offset="1" stop-color="#009C35"/>
</linearGradient>
<linearGradient id="paint2_linear" x1="145.856" y1="10.4636" x2="306.362" y2="222.524" gradientUnits="userSpaceOnUse">
<stop stop-color="#E0FEE7"/>
<stop offset="1" stop-color="#81FFA4"/>
</linearGradient>
<linearGradient id="paint3_linear" x1="415.839" y1="144.536" x2="425.033" y2="242.23" gradientUnits="userSpaceOnUse">
<stop stop-color="#FDFFFC"/>
<stop offset="0.140625" stop-color="#C2FFC8"/>
<stop offset="0.317708" stop-color="#98FFB5"/>
<stop offset="0.619792" stop-color="#00BB29"/>
<stop offset="0.765625" stop-color="#01AF3C"/>
<stop offset="1" stop-color="#009C35"/>
</linearGradient>
<linearGradient id="paint4_linear" x1="415.839" y1="144.536" x2="425.033" y2="242.23" gradientUnits="userSpaceOnUse">
<stop stop-color="#FDFFFC"/>
<stop offset="0.140625" stop-color="#C2FFC8"/>
<stop offset="0.317708" stop-color="#98FFB5"/>
<stop offset="0.619792" stop-color="#00BB29"/>
<stop offset="0.765625" stop-color="#01AF3C"/>
<stop offset="1" stop-color="#009C35"/>
</linearGradient>
<linearGradient id="paint5_linear" x1="415.839" y1="144.536" x2="425.033" y2="242.23" gradientUnits="userSpaceOnUse">
<stop stop-color="#FDFFFC"/>
<stop offset="0.140625" stop-color="#C2FFC8"/>
<stop offset="0.317708" stop-color="#98FFB5"/>
<stop offset="0.619792" stop-color="#00BB29"/>
<stop offset="0.765625" stop-color="#01AF3C"/>
<stop offset="1" stop-color="#009C35"/>
</linearGradient>
<linearGradient id="paint6_linear" x1="393.284" y1="159.965" x2="447.901" y2="246.587" gradientUnits="userSpaceOnUse">
<stop stop-color="#E0FEE7"/>
<stop offset="1" stop-color="#81FFA4"/>
</linearGradient>
</defs>
</svg>
