<svg width="120" height="37" fill="none" xmlns="http://www.w3.org/2000/svg"><path d="M119.078 31.733c0 2.213-1.973 4.08-4.5 4.08H5.211c-2.527 0-4.5-1.867-4.5-4.08V5.01C.71 2.798 2.684.93 5.21.93h109.367c2.527 0 4.499 1.867 4.499 4.08l.001 26.723z" fill="#000" stroke="#fff"/><path d="M48.18 23.79h-1.806l-.989-2.953h-3.44l-.942 2.953h-1.758l3.407-10.055h2.105L48.18 23.79zm-3.093-4.192l-.895-2.626c-.095-.269-.272-.9-.534-1.895h-.032c-.104.428-.272 1.06-.502 1.895l-.88 2.625h2.843zm11.857.478c0 1.233-.351 2.208-1.053 2.923-.628.637-1.408.955-2.34.955-1.005 0-1.727-.343-2.167-1.029h-.032v3.82h-1.696v-7.819c0-.775-.021-1.57-.063-2.386h1.492l.094 1.149h.032c.566-.866 1.424-1.298 2.576-1.298.9 0 1.652.338 2.253 1.014.603.677.904 1.567.904 2.67zm-1.728.059c0-.706-.167-1.288-.502-1.746-.367-.477-.86-.716-1.477-.716a1.82 1.82 0 00-1.138.395c-.34.265-.563.61-.667 1.038a1.99 1.99 0 00-.08.49v1.21c0 .527.171.972.512 1.336.34.363.782.544 1.326.544.639 0 1.136-.234 1.492-.7.356-.469.534-1.085.534-1.851zm10.507-.059c0 1.233-.351 2.208-1.053 2.923-.628.637-1.408.955-2.34.955-1.005 0-1.727-.343-2.166-1.029h-.032v3.82h-1.696v-7.819c0-.775-.022-1.57-.063-2.386h1.492l.094 1.149h.032c.565-.866 1.423-1.298 2.575-1.298.9 0 1.652.338 2.255 1.014.6.677.902 1.567.902 2.67zm-1.728.059c0-.706-.168-1.288-.503-1.746-.367-.477-.858-.716-1.476-.716-.42 0-.798.133-1.139.395a1.82 1.82 0 00-.666 1.038 2.05 2.05 0 00-.08.49v1.21c0 .527.171.972.51 1.336.34.362.782.544 1.328.544.639 0 1.136-.234 1.492-.7.356-.469.534-1.085.534-1.851zm11.543.835c0 .856-.313 1.552-.94 2.089-.69.587-1.65.88-2.884.88-1.139 0-2.052-.208-2.743-.626l.393-1.343a4.834 4.834 0 002.451.642c.64 0 1.136-.137 1.493-.41.356-.274.533-.642.533-1.1 0-.407-.146-.751-.44-1.03-.291-.279-.78-.538-1.46-.777-1.853-.657-2.78-1.619-2.78-2.884 0-.827.326-1.504.975-2.032.648-.528 1.512-.792 2.592-.792.963 0 1.763.16 2.402.478l-.424 1.313c-.597-.308-1.271-.462-2.026-.462-.597 0-1.063.14-1.397.418a1.168 1.168 0 00-.424.91c0 .398.162.726.486.985.283.238.796.497 1.54.776.911.348 1.58.755 2.01 1.222.429.466.643 1.048.643 1.743zm5.607-3.222h-1.87v3.52c0 .896.33 1.343.99 1.343.303 0 .554-.024.753-.074l.047 1.223c-.334.119-.774.178-1.319.178-.67 0-1.193-.194-1.57-.581-.377-.389-.566-1.04-.566-1.955v-3.655h-1.114v-1.209h1.114V15.21l1.665-.477v1.805h1.87v1.21zm8.433 2.357c0 1.115-.335 2.03-1.005 2.745-.702.737-1.635 1.104-2.797 1.104-1.12 0-2.011-.353-2.676-1.058-.665-.706-.998-1.597-.998-2.67 0-1.124.342-2.044 1.029-2.76.685-.716 1.609-1.075 2.771-1.075 1.12 0 2.021.353 2.701 1.06.65.685.975 1.57.975 2.654zm-1.76.052c0-.668-.15-1.242-.454-1.72-.356-.579-.864-.868-1.523-.868-.681 0-1.199.29-1.554.868-.305.479-.456 1.061-.456 1.75 0 .67.15 1.243.456 1.72.366.58.878.868 1.54.868.647 0 1.155-.295 1.522-.883.312-.487.47-1.067.47-1.735zm7.272-2.201a3.092 3.092 0 00-.534-.044c-.597 0-1.058.214-1.382.642-.283.378-.424.855-.424 1.432v3.804h-1.695l.015-4.967c0-.836-.021-1.597-.063-2.283h1.477l.062 1.388h.047c.179-.477.461-.861.848-1.149.378-.26.786-.388 1.225-.388.157 0 .299.01.424.03v1.535zm7.585 1.866c0 .288-.02.532-.062.73h-5.088c.02.717.266 1.265.738 1.643.429.337.983.506 1.664.506.754 0 1.441-.114 2.059-.343l.265 1.119c-.722.299-1.574.448-2.558.448-1.184 0-2.113-.331-2.789-.992-.674-.662-1.013-1.55-1.013-2.663 0-1.093.315-2.004.944-2.73.658-.775 1.548-1.163 2.668-1.163 1.1 0 1.933.388 2.499 1.163.447.616.673 1.377.673 2.282zm-1.617-.418c.011-.477-.1-.89-.33-1.238-.293-.448-.744-.672-1.351-.672-.554 0-1.005.218-1.35.657-.282.348-.45.766-.502 1.252l3.533.001zm-76.424-1.06c-.02-2.266 1.862-3.37 1.948-3.42-1.066-1.55-2.718-1.761-3.298-1.778-1.387-.146-2.733.827-3.44.827-.72 0-1.808-.813-2.981-.79-1.51.024-2.921.895-3.695 2.248-1.598 2.76-.407 6.814 1.124 9.044.766 1.092 1.661 2.311 2.833 2.268 1.146-.047 1.574-.728 2.957-.728 1.37 0 1.772.729 2.966.701 1.23-.02 2.005-1.097 2.744-2.2.885-1.25 1.24-2.484 1.254-2.547-.029-.01-2.388-.908-2.412-3.625zm-2.256-6.665c.616-.77 1.038-1.815.92-2.876-.891.04-2.007.615-2.65 1.367-.568.663-1.076 1.748-.944 2.77 1.002.074 2.03-.505 2.674-1.261z" fill="#fff"/></svg>