<svg width="120" height="37" fill="none" xmlns="http://www.w3.org/2000/svg"><path d="M119.5 31.733c0 2.169-2.162 4.08-5.036 4.08H6.171c-2.875 0-5.038-1.911-5.038-4.08V5.01c0-2.168 2.163-4.08 5.038-4.08h108.293c2.874 0 5.036 1.912 5.036 4.08v26.723z" fill="#000" stroke="#fff"/><path d="M56.64 23.864l-.945-2.789h-3.933l-.944 2.79h-1.666l3.726-10.32h1.73l3.726 10.32H56.64zm-2.933-8.603l-1.537 4.527h3.118L53.75 15.26h-.043zm5.578 8.603v-7.523h1.474v1.258h.035c.21-.438.515-.78.916-1.022.4-.243.884-.365 1.452-.365.824 0 1.466.248 1.923.744.458.49.687 1.17.687 2.038v4.87H64.22v-4.57c0-.572-.136-1.006-.408-1.301-.267-.3-.665-.45-1.194-.45-.543 0-.977.176-1.302.528-.324.353-.486.823-.486 1.41v4.383h-1.544zm10.806.129c-.953 0-1.718-.353-2.295-1.058-.577-.706-.866-1.65-.866-2.832 0-1.183.286-2.125.859-2.825.576-.706 1.34-1.059 2.288-1.059.53 0 1.001.124 1.416.372.415.243.73.577.944 1.001h.029v-4.047h1.552v10.32h-1.502v-1.281h-.029a2.53 2.53 0 01-.965 1.037c-.415.248-.892.372-1.43.372zm.408-6.472c-.61 0-1.094.233-1.452.7-.357.463-.536 1.09-.536 1.881 0 .797.179 1.426.536 1.889.358.462.842.693 1.452.693a1.73 1.73 0 001.438-.7c.362-.473.543-1.1.543-1.882 0-.777-.181-1.401-.544-1.873a1.724 1.724 0 00-1.437-.708zm5.106 6.343v-7.523h1.473v1.28h.036c.124-.439.346-.782.665-1.03.32-.248.701-.372 1.145-.372.147 0 .324.02.529.057v1.438c-.139-.057-.37-.086-.694-.086-.496 0-.89.155-1.18.465-.286.31-.43.732-.43 1.266v4.505h-1.544zm10.305-.901c-.648.696-1.513 1.044-2.596 1.044-1.082 0-1.947-.348-2.595-1.044-.649-.7-.973-1.654-.973-2.86 0-1.202.324-2.15.973-2.847.648-.7 1.513-1.051 2.596-1.051 1.082 0 1.947.35 2.596 1.051.648.696.972 1.645.972 2.846 0 1.207-.324 2.16-.972 2.861zm-2.596-.229c.616 0 1.102-.231 1.46-.694.357-.462.536-1.108.536-1.938 0-.824-.181-1.468-.544-1.93-.357-.463-.841-.694-1.452-.694-.61 0-1.096.231-1.458.694-.358.462-.537 1.106-.537 1.93 0 .83.179 1.476.537 1.939.362.462.848.693 1.459.693zm4.813 1.13v-7.523h1.545v7.523h-1.544zm1.41-8.882a.88.88 0 01-.637.257.88.88 0 01-.894-.88.88.88 0 01.894-.887.87.87 0 01.636.258.844.844 0 01.265.63c0 .243-.088.45-.265.622zm4.541 9.011c-.954 0-1.72-.353-2.296-1.058-.577-.706-.865-1.65-.865-2.832 0-1.183.286-2.125.858-2.825.577-.706 1.34-1.059 2.288-1.059.53 0 1.001.124 1.416.372.415.243.73.577.944 1.001h.029v-4.047h1.552v10.32h-1.502v-1.281h-.029a2.53 2.53 0 01-.965 1.037c-.415.248-.892.372-1.43.372zm.407-6.472c-.61 0-1.094.233-1.452.7-.357.463-.536 1.09-.536 1.881 0 .797.179 1.426.536 1.889.358.462.842.693 1.452.693a1.73 1.73 0 001.438-.7c.362-.473.543-1.1.543-1.882 0-.777-.181-1.401-.543-1.873a1.724 1.724 0 00-1.438-.708z" fill="#fff"/><g clip-path="url(#clip0)"><path d="M25.39 20.309c0 .704-.49 1.281-1.09 1.281-.6 0-1.092-.576-1.092-1.281v-4.193c0-.705.491-1.281 1.091-1.281s1.091.576 1.091 1.28v4.194zm12.718 0c0 .704-.491 1.281-1.091 1.281s-1.092-.576-1.092-1.281v-4.193c0-.705.491-1.281 1.092-1.281.6 0 1.09.576 1.09 1.28v4.194zm-5.065-9.527l.7-1.256c.057-.103.04-.222-.038-.265-.077-.043-.188.005-.245.108l-.715 1.285a5.763 5.763 0 00-2.11-.392 5.76 5.76 0 00-2.125.398l-.72-1.29c-.057-.103-.168-.152-.245-.109-.077.044-.094.163-.037.266l.703 1.262c-1.463.687-2.449 1.978-2.449 3.456 0 .15.011.299.03.445h9.685c.02-.146.03-.294.03-.445 0-1.483-.992-2.777-2.463-3.462l-.001-.001zm-4.62 2.192a.427.427 0 110-.853.427.427 0 010 .853zm4.446 0a.426.426 0 110-.852.426.426 0 010 .852zm-7.108 2.139v7.143h.004c.05.603.605 1.082 1.277 1.082h7.183c.672 0 1.227-.48 1.277-1.082h.004v-7.143h-9.744zm4.175 8.19v2.21c0 .704-.49 1.28-1.09 1.28-.6 0-1.091-.576-1.091-1.28v-2.209l2.181-.001zm3.636-.002v2.211c0 .705-.49 1.281-1.091 1.281-.6 0-1.091-.576-1.091-1.28V23.3h2.182z" fill="#fff"/></g><defs><clipPath id="clip0"><path fill="#fff" transform="translate(21.87 9.218)" d="M0 0h17.576v17.576H0z"/></clipPath></defs></svg>