<svg width="495" height="282" fill="none" xmlns="http://www.w3.org/2000/svg"><path d="M.049 250.447l7.948-45.457 97.767-85.217c18.052-15.535 27.921-28.198 29.608-37.989 1.199-5.827.291-10.615-2.722-14.365-3.012-3.75-7.552-5.641-13.619-5.674-13.766-.076-26.181 8.723-37.245 26.396L31.208 56.715c11.302-18.606 25.379-32.529 42.23-41.77C90.287 5.47 108.28.785 127.413.889c22.633.124 41.14 8.042 55.521 23.754 14.616 15.48 19.758 35.225 15.427 59.235-2.645 14.22-7.73 26.675-15.255 37.368-7.292 10.693-18.205 22.3-32.741 34.821l-40.788 34.428 72.799.398-10.831 60.491-171.497-.937z" fill="url(#paint0_linear)"/><path d="M385.067 67.398l-85.748-.468-6.794 26.213 15.05.082c23.566.129 42.308 7.815 56.225 23.058 14.15 15.244 18.819 36.153 14.007 62.727-4.573 25.642-16.23 45.179-34.97 58.61-18.506 13.199-40.242 19.73-65.208 19.594-44.333-.242-72.582-18.83-84.747-55.764l57.914-29.784c5.044 16.361 16.316 24.59 33.815 24.685 8.633.047 15.644-1.898 21.032-5.835 5.623-4.169 9.037-9.634 10.24-16.394 1.205-6.994-.164-12.601-4.108-16.823-3.71-4.22-9.649-6.353-17.815-6.397l-78.749-.431L251.346 6.817l144.548.79-10.827 59.791z" fill="url(#paint1_linear)"/><path fill-rule="evenodd" clip-rule="evenodd" d="M73.436 14.945c-16.85 9.241-30.927 23.164-42.229 41.77L81.786 88.14c11.063-17.673 23.479-26.472 37.245-26.396 6.067.033 10.607 1.924 13.619 5.674 3.013 3.75 3.921 8.538 2.722 14.365-1.687 9.791-11.556 22.454-29.608 37.989L7.997 204.99.049 250.447l171.497.937 10.831-60.491-72.799-.398 40.788-34.428c14.536-12.521 25.449-24.128 32.741-34.821 7.525-10.693 12.61-23.149 15.255-37.368 4.331-24.01-.811-43.755-15.427-59.235C168.554 8.931 150.047 1.013 127.414.89 108.281.785 90.288 5.47 73.436 14.945zm75.299 139.228l.009-.008c14.437-12.437 25.174-23.881 32.298-34.328l.01-.015.011-.015c7.296-10.367 12.253-22.478 14.839-36.378 4.212-23.357-.8-42.258-14.785-57.07l-.013-.014-.013-.014C167.212 11.168 149.386 3.51 127.4 3.39c-18.694-.102-36.26 4.47-52.739 13.735l-.011.007-.012.006c-15.78 8.655-29.118 21.548-39.99 38.772l46.365 28.809c10.963-16.655 23.605-25.552 38.032-25.473 6.605.036 11.95 2.123 15.554 6.608 3.581 4.457 4.528 10.044 3.23 16.396-.952 5.466-4.116 11.45-9.152 17.912-5.071 6.507-12.182 13.675-21.276 21.502a.027.027 0 00-.006.005l-97.088 84.625-7.286 41.671 166.435.909 9.936-55.497-76.608-.418 45.951-38.785zM299.319 66.93l85.748.468 10.827-59.792-144.548-.79-36.135 143.655 78.749.431c8.166.044 14.105 2.177 17.815 6.397 3.944 4.222 5.313 9.829 4.108 16.823-1.203 6.76-4.617 12.225-10.24 16.394-5.388 3.937-12.399 5.882-21.032 5.835-16.623-.091-27.627-7.52-33.011-22.288a49.848 49.848 0 01-.804-2.397l-57.914 29.784c12.165 36.934 40.414 55.522 84.747 55.764 24.966.136 46.702-6.395 65.208-19.594 18.74-13.431 30.397-32.968 34.97-58.61 4.812-26.574.143-47.483-14.007-62.727-13.917-15.243-32.659-22.93-56.225-23.058l-15.05-.082 6.794-26.213zM195.944 202.687c5.99 16.999 15.551 29.715 28.623 38.316 13.612 8.957 31.245 13.592 53.075 13.711 24.496.134 45.707-6.265 63.743-19.129 18.138-13.001 29.486-31.925 33.961-57.014l.001-.006c4.718-26.053.082-46.08-13.379-60.582l-.007-.007-.007-.008c-13.378-14.652-31.415-22.117-54.393-22.243l-18.262-.1 8.088-31.206 85.594.468 9.923-54.797-139.611-.763-34.88 138.662 75.56.413c8.535.046 15.291 2.275 19.655 7.218 4.58 4.921 6.02 11.372 4.719 18.926l-.002.014c-1.318 7.402-5.088 13.423-11.213 17.964l-.007.005-.007.006c-5.932 4.334-13.51 6.365-22.52 6.316-9.141-.05-16.882-2.229-23.039-6.724-5.472-3.993-9.511-9.683-12.198-16.912l-53.417 27.472z" fill="url(#paint2_linear)"/><g filter="url(#filter0_d)"><path d="M395.739 227.977c-.741 3.676-2.656 6.426-5.746 8.249 3.148 2.257 4.391 5.444 3.728 9.56-.539 3.517-2.295 6.348-5.266 8.492-2.932 2.144-6.758 3.203-11.478 3.177l-17.76-.097 7.61-41.959 16.08.088c4.559.025 8.013 1.223 10.36 3.596 2.347 2.333 3.171 5.298 2.472 8.894zm-14.809-2.181l-3.96-.022-1.051 5.635 4.621-.035c1.761-.23 2.786-1.145 3.075-2.743.165-.999-.031-1.72-.588-2.164-.518-.442-1.217-.666-2.097-.671zm1.1 18.366c.329-1.718-.345-2.702-2.024-2.951l-5.82-.092-1.112 5.994 5.04.028c1 .005 1.841-.25 2.524-.766.723-.556 1.187-1.294 1.392-2.213z" fill="url(#paint3_linear)"/><path d="M436.699 215.781l-17.95 23.722-3.28 18.162-11.999-.065 3.279-18.103-9.29-23.931 12.6.069 4.01 12.742 8.59-12.673 14.04.077z" fill="url(#paint4_linear)"/><path d="M432.107 257.756l7.609-41.959 9.6.052 9.55 20.213 3.65-20.14 12 .065-7.61 41.959-9.599-.052-9.55-20.213-3.65 20.141-12-.066z" fill="url(#paint5_linear)"/></g><g filter="url(#filter1_d)"><path fill-rule="evenodd" clip-rule="evenodd" d="M391.145 235.463c2.419-1.795 3.95-4.291 4.594-7.486.699-3.596-.125-6.561-2.472-8.894-2.347-2.373-5.801-3.571-10.36-3.596l-16.08-.088-7.61 41.959 17.76.097c4.72.026 8.546-1.033 11.478-3.177 2.971-2.144 4.727-4.975 5.266-8.492.582-3.613-.305-6.51-2.658-8.691a11.14 11.14 0 00-1.07-.869c.404-.239.788-.493 1.152-.763zm-30.372 20.603l16.211.089c4.525.025 8.055-.99 10.703-2.927l.007-.005c2.699-1.946 4.258-4.473 4.742-7.634l.002-.009c.302-1.88.157-3.464-.363-4.799-.518-1.329-1.442-2.497-2.839-3.499l-1.621-1.162 1.718-1.014c2.755-1.626 4.459-4.051 5.13-7.381.626-3.223-.11-5.73-2.112-7.72l-.008-.007c-2.027-2.049-5.099-3.188-9.444-3.211l-14.988-.082-7.138 39.361zm15.118-31.598l5.046.028c1.088.006 2.108.285 2.917.969 1.057.853 1.248 2.141 1.043 3.378l-.001.009-.002.01c-.186 1.03-.632 1.939-1.399 2.623-.758.676-1.722 1.039-2.787 1.178l-.079.01-6.277.048 1.539-8.253zm7.136 1.999c.557.444.753 1.165.588 2.164-.289 1.598-1.314 2.513-3.075 2.743l-4.621.035 1.051-5.635 3.96.022c.88.005 1.579.229 2.097.671zm.276 17.959l-.004.019c-.269 1.206-.896 2.212-1.869 2.96l-.008.007c-.948.716-2.08 1.036-3.316 1.029l-6.594-.036 1.597-8.603 7.003.111.085.012c1.042.155 2.03.578 2.646 1.476.609.888.663 1.965.464 3.006l-.004.019zm-9.117-3.307l5.82.092c1.679.249 2.353 1.233 2.024 2.951-.205.919-.669 1.657-1.392 2.213-.683.516-1.524.771-2.524.766l-5.04-.028 1.112-5.994zm44.563-1.616l17.95-23.722-14.04-.077-8.59 12.673-4.01-12.742-12.6-.069 9.29 23.931-3.279 18.103 11.999.065 3.28-18.162zm-4.365 16.856l3.141-17.393 16.57-21.9-10.749-.058-9.709 14.325-4.533-14.403-9.742-.053 8.731 22.491-3.068 16.94 9.359.051zm44.482-20.297l-9.55-20.213-9.6-.052-7.609 41.959 12 .066 3.65-20.141 9.55 20.213 9.599.052 7.61-41.959-12-.065-3.65 20.14zm4.734-18.834l-4.178 23.054-10.932-23.137-7.689-.042-7.139 39.362 9.36.051 4.179-23.055 10.931 23.137 7.69.042 7.138-39.361-9.36-.051z" fill="url(#paint6_linear)"/></g><defs><linearGradient id="paint0_linear" x1="197.738" y1="-32.135" x2="228.307" y2="236.097" gradientUnits="userSpaceOnUse"><stop stop-color="#FDFFFC"/><stop offset=".141" stop-color="#C2FFC8"/><stop offset=".318" stop-color="#98FFB5"/><stop offset=".62" stop-color="#00BB29"/><stop offset=".766" stop-color="#01AF3C"/><stop offset="1" stop-color="#009C35"/></linearGradient><linearGradient id="paint1_linear" x1="197.738" y1="-32.135" x2="228.307" y2="236.097" gradientUnits="userSpaceOnUse"><stop stop-color="#FDFFFC"/><stop offset=".141" stop-color="#C2FFC8"/><stop offset=".318" stop-color="#98FFB5"/><stop offset=".62" stop-color="#00BB29"/><stop offset=".766" stop-color="#01AF3C"/><stop offset="1" stop-color="#009C35"/></linearGradient><linearGradient id="paint2_linear" x1="145.856" y1="10.464" x2="306.362" y2="222.524" gradientUnits="userSpaceOnUse"><stop stop-color="#E0FEE7"/><stop offset="1" stop-color="#81FFA4"/></linearGradient><linearGradient id="paint3_linear" x1="415.839" y1="144.536" x2="425.033" y2="242.23" gradientUnits="userSpaceOnUse"><stop stop-color="#FDFFFC"/><stop offset=".141" stop-color="#C2FFC8"/><stop offset=".318" stop-color="#98FFB5"/><stop offset=".62" stop-color="#00BB29"/><stop offset=".766" stop-color="#01AF3C"/><stop offset="1" stop-color="#009C35"/></linearGradient><linearGradient id="paint4_linear" x1="415.839" y1="144.536" x2="425.033" y2="242.23" gradientUnits="userSpaceOnUse"><stop stop-color="#FDFFFC"/><stop offset=".141" stop-color="#C2FFC8"/><stop offset=".318" stop-color="#98FFB5"/><stop offset=".62" stop-color="#00BB29"/><stop offset=".766" stop-color="#01AF3C"/><stop offset="1" stop-color="#009C35"/></linearGradient><linearGradient id="paint5_linear" x1="415.839" y1="144.536" x2="425.033" y2="242.23" gradientUnits="userSpaceOnUse"><stop stop-color="#FDFFFC"/><stop offset=".141" stop-color="#C2FFC8"/><stop offset=".318" stop-color="#98FFB5"/><stop offset=".62" stop-color="#00BB29"/><stop offset=".766" stop-color="#01AF3C"/><stop offset="1" stop-color="#009C35"/></linearGradient><linearGradient id="paint6_linear" x1="393.284" y1="159.965" x2="447.901" y2="246.587" gradientUnits="userSpaceOnUse"><stop stop-color="#E0FEE7"/><stop offset="1" stop-color="#81FFA4"/></linearGradient><filter id="filter0_d" x="339.217" y="199.358" width="155.298" height="82.628" filterUnits="userSpaceOnUse" color-interpolation-filters="sRGB"><feFlood flood-opacity="0" result="BackgroundImageFix"/><feColorMatrix in="SourceAlpha" values="0 0 0 0 0 0 0 0 0 0 0 0 0 0 0 0 0 0 127 0"/><feOffset dy="4"/><feGaussianBlur stdDeviation="10"/><feColorMatrix values="0 0 0 0 0 0 0 0 0 0 0 0 0 0 0 0 0 0 0.7 0"/><feBlend in2="BackgroundImageFix" result="effect1_dropShadow"/><feBlend in="SourceGraphic" in2="effect1_dropShadow" result="shape"/></filter><filter id="filter1_d" x="339.217" y="199.358" width="155.298" height="82.628" filterUnits="userSpaceOnUse" color-interpolation-filters="sRGB"><feFlood flood-opacity="0" result="BackgroundImageFix"/><feColorMatrix in="SourceAlpha" values="0 0 0 0 0 0 0 0 0 0 0 0 0 0 0 0 0 0 127 0"/><feOffset dy="4"/><feGaussianBlur stdDeviation="10"/><feColorMatrix values="0 0 0 0 0 0 0 0 0 0 0 0 0 0 0 0 0 0 0.7 0"/><feBlend in2="BackgroundImageFix" result="effect1_dropShadow"/><feBlend in="SourceGraphic" in2="effect1_dropShadow" result="shape"/></filter></defs></svg>